<svg xmlns="http://www.w3.org/2000/svg" xmlns:xlink="http://www.w3.org/1999/xlink" width="180.231" height="122.219" viewBox="0 0 180.231 122.219">
  <defs>
    <clipPath id="clip-path">
      <rect id="Rectangle_286" data-name="Rectangle 286" width="180.231" height="122.219" fill="none"/>
    </clipPath>
  </defs>
  <g id="Group_303" data-name="Group 303" transform="translate(-411.131 -15655.23)">
    <g id="Group_291" data-name="Group 291" transform="translate(411.131 15655.23)">
      <path id="Path_92" data-name="Path 92" d="M40.587,0l-12.9,20.085H25.68L19.833,0H13.451L7.961,31.242h4.018L16.8,4.017l5.667,19.638h7.365L42.461,4.017l-4.82,27.225h4.017L47.149,0Z" transform="translate(-4.746)" fill="#fff"/>
      <g id="Group_290" data-name="Group 290">
        <g id="Group_289" data-name="Group 289" clip-path="url(#clip-path)">
          <path id="Path_93" data-name="Path 93" d="M107.994,31.242l3.928-22.316h3.57l-3.928,22.316Zm4.195-28.565a2.574,2.574,0,0,1,.8-1.875,2.522,2.522,0,0,1,1.83-.8A2.268,2.268,0,0,1,116.5.648a2.159,2.159,0,0,1,.647,1.584,2.569,2.569,0,0,1-.8,1.875,2.524,2.524,0,0,1-1.83.8,2.268,2.268,0,0,1-1.674-.647,2.154,2.154,0,0,1-.647-1.585" transform="translate(-64.387)" fill="#fff"/>
          <path id="Path_94" data-name="Path 94" d="M131.536,36.846h3.793a5.2,5.2,0,0,0,1.2,2.008,7.423,7.423,0,0,0,5.491,2.008,6.272,6.272,0,0,0,3.683-.938,2.772,2.772,0,0,0,1.316-2.32,1.715,1.715,0,0,0-.224-.849,2.5,2.5,0,0,0-.758-.781,10.743,10.743,0,0,0-.982-.625,11.753,11.753,0,0,0-1.407-.6q-.96-.356-1.45-.512t-1.652-.514q-6.471-1.874-6.47-6.025a6.093,6.093,0,0,1,2.187-4.776A8.9,8.9,0,0,1,142.337,21q5.443,0,8.123,3.391a7.283,7.283,0,0,1,1.472,3.393h-3.793a4.582,4.582,0,0,0-1.07-1.7,6.58,6.58,0,0,0-4.866-1.741,5.5,5.5,0,0,0-3.348.871,2.478,2.478,0,0,0-1.16,1.986,1.894,1.894,0,0,0,.491,1.249,4.442,4.442,0,0,0,1.561,1.072,18.318,18.318,0,0,0,1.964.781q.893.29,2.454.736a14.71,14.71,0,0,1,4.665,2.343,4.533,4.533,0,0,1,1.763,3.727,6.4,6.4,0,0,1-2.388,5.044,9.634,9.634,0,0,1-6.494,2.053q-5.67,0-8.613-3.66a8.045,8.045,0,0,1-1.563-3.7" transform="translate(-78.423 -12.522)" fill="#fff"/>
          <path id="Path_95" data-name="Path 95" d="M187.351,36.846h3.793a5.2,5.2,0,0,0,1.2,2.008,7.423,7.423,0,0,0,5.491,2.008,6.272,6.272,0,0,0,3.683-.938,2.772,2.772,0,0,0,1.316-2.32,1.715,1.715,0,0,0-.224-.849,2.5,2.5,0,0,0-.758-.781,10.741,10.741,0,0,0-.982-.625,11.754,11.754,0,0,0-1.407-.6q-.96-.356-1.45-.512t-1.652-.514q-6.471-1.874-6.47-6.025a6.093,6.093,0,0,1,2.187-4.776A8.9,8.9,0,0,1,198.152,21q5.443,0,8.123,3.391a7.283,7.283,0,0,1,1.472,3.393h-3.793a4.582,4.582,0,0,0-1.07-1.7,6.58,6.58,0,0,0-4.866-1.741,5.5,5.5,0,0,0-3.348.871,2.478,2.478,0,0,0-1.16,1.986A1.894,1.894,0,0,0,194,28.455a4.442,4.442,0,0,0,1.561,1.072,18.319,18.319,0,0,0,1.964.781q.893.29,2.454.736a14.71,14.71,0,0,1,4.665,2.343,4.533,4.533,0,0,1,1.763,3.727,6.4,6.4,0,0,1-2.388,5.044,9.634,9.634,0,0,1-6.494,2.053q-5.67,0-8.613-3.66a8.045,8.045,0,0,1-1.563-3.7" transform="translate(-111.7 -12.522)" fill="#fff"/>
          <path id="Path_96" data-name="Path 96" d="M243.944,31.242l3.928-22.316h3.57l-3.928,22.316Zm4.195-28.565a2.574,2.574,0,0,1,.8-1.875,2.522,2.522,0,0,1,1.83-.8,2.268,2.268,0,0,1,1.674.648,2.159,2.159,0,0,1,.647,1.584,2.569,2.569,0,0,1-.8,1.875,2.524,2.524,0,0,1-1.83.8,2.268,2.268,0,0,1-1.674-.647,2.154,2.154,0,0,1-.647-1.585" transform="translate(-145.442)" fill="#fff"/>
          <path id="Path_97" data-name="Path 97" d="M280.5,44.21a10.652,10.652,0,0,1-7.812-2.945,9.969,9.969,0,0,1-2.99-7.409,12.445,12.445,0,0,1,3.682-9.171A12.075,12.075,0,0,1,282.237,21a10.656,10.656,0,0,1,7.812,2.946,9.971,9.971,0,0,1,2.99,7.409,12.445,12.445,0,0,1-3.682,9.171A12.074,12.074,0,0,1,280.5,44.21m9.015-12.675a6.871,6.871,0,0,0-2.076-5.2,7.583,7.583,0,0,0-5.467-1.986,8.34,8.34,0,0,0-6.159,2.634,9.151,9.151,0,0,0-2.588,6.695,6.87,6.87,0,0,0,2.075,5.2,7.576,7.576,0,0,0,5.467,1.986,8.34,8.34,0,0,0,6.159-2.634,9.157,9.157,0,0,0,2.588-6.695" transform="translate(-160.795 -12.522)" fill="#fff"/>
          <path id="Path_98" data-name="Path 98" d="M338.5,21.448h3.57l-.491,2.9a8.158,8.158,0,0,1,1.7-1.651,9.381,9.381,0,0,1,5.534-1.7,8.548,8.548,0,0,1,5.491,1.673,7.308,7.308,0,0,1,2.634,4.531,11.155,11.155,0,0,1,.133,1.741,15.923,15.923,0,0,1-.224,2.41L354.66,43.764h-3.57l2.187-12.408a11.241,11.241,0,0,0,.134-1.651,5.709,5.709,0,0,0-.983-3.393q-1.427-1.964-4.686-1.964a6.878,6.878,0,0,0-4.8,1.807,8.581,8.581,0,0,0-2.566,4.977l-2.232,12.631h-3.57Z" transform="translate(-199.477 -12.522)" fill="#fff"/>
          <path id="Path_99" data-name="Path 99" d="M146.038,224.2l-4.82,27.448h16.291l-.669,3.794H136.53l5.491-31.242Z" transform="translate(-81.401 -133.671)" fill="#fff"/>
          <path id="Path_100" data-name="Path 100" d="M215.888,267.965h-3.572l.536-2.946-.447.535a9.36,9.36,0,0,1-2.788,1.964,9.642,9.642,0,0,1-4.308.892,9.451,9.451,0,0,1-7.052-2.879,10.129,10.129,0,0,1-2.812-7.387,12.658,12.658,0,0,1,3.661-9.194,11.32,11.32,0,0,1,8.3-3.749,8.747,8.747,0,0,1,6.472,2.41,7.144,7.144,0,0,1,1.607,2.41l.8-4.374h3.57Zm-8.435-19.415a7.607,7.607,0,0,0-6,2.835,9.625,9.625,0,0,0-2.432,6.449,7.216,7.216,0,0,0,1.941,5.2,6.58,6.58,0,0,0,4.977,2.031,7.925,7.925,0,0,0,5.891-2.656,9.319,9.319,0,0,0,2.545-6.717,7.038,7.038,0,0,0-1.965-5.133,6.637,6.637,0,0,0-4.953-2.008" transform="translate(-116.527 -146.192)" fill="#fff"/>
          <path id="Path_101" data-name="Path 101" d="M264.42,242.407l.58-3.347h2.9l.892-4.909h3.572l-.894,4.909h7.141l-.58,3.347H270.89l-2.766,15.622h7.365l-.581,3.347H263.973l3.348-18.969Z" transform="translate(-157.383 -139.603)" fill="#fff"/>
          <path id="Path_102" data-name="Path 102" d="M327.4,246.308l-10.176,22.316h-9.149l-2.321-22.316h3.66l1.785,18.969h3.794l8.48-18.969Z" transform="translate(-182.293 -146.851)" fill="#fff"/>
          <path id="Path_103" data-name="Path 103" d="M360.136,255.443l3.928-22.316h3.57l-3.928,22.316Zm4.2-28.565a2.574,2.574,0,0,1,.8-1.875,2.522,2.522,0,0,1,1.83-.8,2.268,2.268,0,0,1,1.674.648,2.159,2.159,0,0,1,.647,1.584,2.569,2.569,0,0,1-.8,1.875,2.524,2.524,0,0,1-1.83.8,2.268,2.268,0,0,1-1.674-.647,2.154,2.154,0,0,1-.647-1.585" transform="translate(-214.716 -133.671)" fill="#fff"/>
          <path id="Path_104" data-name="Path 104" d="M406.33,267.965h-3.572l.536-2.946-.447.535a9.36,9.36,0,0,1-2.788,1.964,9.642,9.642,0,0,1-4.308.892,9.451,9.451,0,0,1-7.052-2.879,10.129,10.129,0,0,1-2.812-7.387,12.658,12.658,0,0,1,3.661-9.194,11.32,11.32,0,0,1,8.3-3.749,8.747,8.747,0,0,1,6.472,2.41,7.144,7.144,0,0,1,1.607,2.41l.8-4.374H410.3Zm-8.435-19.415a7.606,7.606,0,0,0-6,2.835,9.625,9.625,0,0,0-2.432,6.449,7.216,7.216,0,0,0,1.941,5.2,6.58,6.58,0,0,0,4.977,2.031,7.925,7.925,0,0,0,5.891-2.656,9.319,9.319,0,0,0,2.545-6.717,7.038,7.038,0,0,0-1.965-5.133,6.637,6.637,0,0,0-4.953-2.008" transform="translate(-230.07 -146.192)" fill="#fff"/>
          <path id="Path_105" data-name="Path 105" d="M33.007,131.4H37.2a21.212,21.212,0,0,1-3.7,5.981,16.32,16.32,0,0,1-12.719,5.936A14.888,14.888,0,0,1,9.8,139.148,14.486,14.486,0,0,1,5.6,128.415a17.586,17.586,0,0,1,5.2-12.876,17,17,0,0,1,12.519-5.244,17.546,17.546,0,0,1,6.138,1,11.834,11.834,0,0,1,4.373,2.7,14.682,14.682,0,0,1,2.655,3.616,16.035,16.035,0,0,1,1.429,4.061H33.9l-.178-.581a10.082,10.082,0,0,0-.6-1.406,11.157,11.157,0,0,0-1.249-1.807,10.036,10.036,0,0,0-1.964-1.852,10.56,10.56,0,0,0-2.923-1.361,13.241,13.241,0,0,0-4.017-.58,12.628,12.628,0,0,0-9.462,4.039A14.182,14.182,0,0,0,9.621,128.37a10.813,10.813,0,0,0,3.146,8.056,11.339,11.339,0,0,0,8.324,3.1,12.116,12.116,0,0,0,9.193-4.062,14.512,14.512,0,0,0,2.723-4.061" transform="translate(-3.341 -65.758)" fill="#fff"/>
          <path id="Path_106" data-name="Path 106" d="M90.713,143.747l3.928-22.316h3.57l-3.928,22.316Zm4.195-28.565a2.575,2.575,0,0,1,.8-1.875,2.522,2.522,0,0,1,1.83-.8,2.268,2.268,0,0,1,1.674.647,2.159,2.159,0,0,1,.647,1.584,2.569,2.569,0,0,1-.8,1.875,2.522,2.522,0,0,1-1.83.8,2.266,2.266,0,0,1-1.674-.647,2.154,2.154,0,0,1-.647-1.585" transform="translate(-54.084 -67.077)" fill="#fff"/>
          <path id="Path_107" data-name="Path 107" d="M117.686,130.71l.58-3.347h2.9l.892-4.909h3.572l-.894,4.909h7.141l-.58,3.347h-7.141l-2.766,15.622h7.365l-.581,3.347H117.239l3.348-18.969Z" transform="translate(-69.899 -73.008)" fill="#fff"/>
          <path id="Path_108" data-name="Path 108" d="M155.369,143.747l3.928-22.316h3.57l-3.928,22.316Zm4.195-28.565a2.575,2.575,0,0,1,.8-1.875,2.522,2.522,0,0,1,1.83-.8,2.268,2.268,0,0,1,1.674.647,2.159,2.159,0,0,1,.647,1.584,2.569,2.569,0,0,1-.8,1.875,2.522,2.522,0,0,1-1.83.8,2.266,2.266,0,0,1-1.674-.647,2.154,2.154,0,0,1-.647-1.585" transform="translate(-92.632 -67.077)" fill="#fff"/>
          <path id="Path_109" data-name="Path 109" d="M181.121,146.36a12.259,12.259,0,0,1,3.771-9.217,12.1,12.1,0,0,1,8.637-3.637,10.266,10.266,0,0,1,7.586,2.945,9.935,9.935,0,0,1,2.946,7.32q0,.58-.089,1.561l-.089.893H184.647A6.831,6.831,0,0,0,186.7,151.4a7.3,7.3,0,0,0,5.265,1.964,8.945,8.945,0,0,0,5.847-2.008,6.736,6.736,0,0,0,1.785-2.008H203.3a13.3,13.3,0,0,1-2.679,3.7,12.536,12.536,0,0,1-8.926,3.66,10.365,10.365,0,0,1-7.632-2.923,10.02,10.02,0,0,1-2.946-7.431m3.973-3.258h15.353a6.776,6.776,0,0,0-2.232-4.575,7.4,7.4,0,0,0-5.043-1.674,7.933,7.933,0,0,0-5.044,1.763,8.739,8.739,0,0,0-3.034,4.486" transform="translate(-107.986 -79.598)" fill="#fff"/>
          <path id="Path_110" data-name="Path 110" d="M244.123,149.351h3.793a5.2,5.2,0,0,0,1.2,2.008,7.423,7.423,0,0,0,5.491,2.008,6.272,6.272,0,0,0,3.683-.938,2.772,2.772,0,0,0,1.316-2.32,1.715,1.715,0,0,0-.224-.849,2.5,2.5,0,0,0-.758-.781,10.747,10.747,0,0,0-.982-.625,11.752,11.752,0,0,0-1.407-.6q-.96-.356-1.45-.512t-1.652-.514q-6.471-1.874-6.47-6.025a6.093,6.093,0,0,1,2.187-4.776,8.9,8.9,0,0,1,6.07-1.919q5.443,0,8.123,3.391a7.283,7.283,0,0,1,1.472,3.393h-3.793a4.582,4.582,0,0,0-1.07-1.7,6.58,6.58,0,0,0-4.866-1.741,5.5,5.5,0,0,0-3.348.871,2.478,2.478,0,0,0-1.16,1.986,1.894,1.894,0,0,0,.491,1.249,4.442,4.442,0,0,0,1.561,1.072,18.318,18.318,0,0,0,1.964.781q.893.29,2.454.736a14.709,14.709,0,0,1,4.665,2.343,4.533,4.533,0,0,1,1.763,3.727,6.4,6.4,0,0,1-2.388,5.044,9.634,9.634,0,0,1-6.494,2.053q-5.67,0-8.613-3.66a8.045,8.045,0,0,1-1.563-3.7" transform="translate(-145.548 -79.598)" fill="#fff"/>
          <path id="Path_111" data-name="Path 111" d="M91.615,252.563A11.666,11.666,0,0,1,79.962,240.91h2.195a9.469,9.469,0,0,0,9.458,9.458Z" transform="translate(-47.674 -143.633)" fill="#fff"/>
          <path id="Path_112" data-name="Path 112" d="M82.156,275.961h-2.2a11.666,11.666,0,0,1,11.653-11.653V266.5a9.469,9.469,0,0,0-9.458,9.458" transform="translate(-47.674 -157.583)" fill="#fff"/>
          <rect id="Rectangle_285" data-name="Rectangle 285" width="43.951" height="2.195" transform="translate(0 106.715)" fill="#fff"/>
        </g>
      </g>
    </g>
  </g>
</svg>
