<svg xmlns="http://www.w3.org/2000/svg" xmlns:xlink="http://www.w3.org/1999/xlink" width="283" height="74.791" viewBox="0 0 283 74.791">
  <defs>
    <clipPath id="clip-path">
      <rect id="Rectangle_2" data-name="Rectangle 2" width="283" height="74.791" fill="none"/>
    </clipPath>
  </defs>
  <g id="Group_3" data-name="Group 3" transform="translate(0 0)">
    <path id="Path_1" data-name="Path 1" d="M33.689.61l-12.524,19.5H19.217L13.54.61h-6.2L2.014,30.942h3.9L10.593,4.51l5.5,19.066h7.149L35.511,4.51,30.83,30.942h3.9L40.06.61Z" transform="translate(0.848 0.257)" fill="#fff"/>
    <g id="Group_2" data-name="Group 2" transform="translate(0 0)">
      <g id="Group_1" data-name="Group 1" clip-path="url(#clip-path)">
        <path id="Path_2" data-name="Path 2" d="M29.61,30.944,33.423,9.278h3.466L33.076,30.944ZM33.683,3.21a2.492,2.492,0,0,1,.78-1.819,2.446,2.446,0,0,1,1.776-.78,2.2,2.2,0,0,1,1.624.627,2.1,2.1,0,0,1,.63,1.539,2.5,2.5,0,0,1-.78,1.82,2.447,2.447,0,0,1-1.776.779,2.193,2.193,0,0,1-1.626-.627,2.093,2.093,0,0,1-.628-1.539" transform="translate(12.468 0.257)" fill="#fff"/>
        <path id="Path_3" data-name="Path 3" d="M36.1,21.787h3.682a5.029,5.029,0,0,0,1.17,1.95,7.2,7.2,0,0,0,5.33,1.95,6.085,6.085,0,0,0,3.575-.909,2.692,2.692,0,0,0,1.278-2.252,1.68,1.68,0,0,0-.216-.824,2.417,2.417,0,0,0-.736-.759,10.405,10.405,0,0,0-.955-.605,10.853,10.853,0,0,0-1.364-.585q-.932-.347-1.408-.5t-1.6-.5q-6.286-1.818-6.285-5.849A5.924,5.924,0,0,1,40.7,8.267,8.646,8.646,0,0,1,46.59,6.4q5.284,0,7.886,3.293a7.063,7.063,0,0,1,1.431,3.3H52.223a4.427,4.427,0,0,0-1.04-1.648,6.383,6.383,0,0,0-4.724-1.69,5.343,5.343,0,0,0-3.25.846,2.4,2.4,0,0,0-1.125,1.928,1.834,1.834,0,0,0,.476,1.214,4.324,4.324,0,0,0,1.518,1.039,17.333,17.333,0,0,0,1.906.759q.865.281,2.383.715a14.254,14.254,0,0,1,4.528,2.275,4.4,4.4,0,0,1,1.714,3.619,6.219,6.219,0,0,1-2.319,4.9,9.355,9.355,0,0,1-6.305,1.992q-5.5,0-8.364-3.553a7.808,7.808,0,0,1-1.515-3.6" transform="translate(15.202 2.696)" fill="#fff"/>
        <path id="Path_4" data-name="Path 4" d="M51.5,21.787h3.683a5.029,5.029,0,0,0,1.17,1.95,7.2,7.2,0,0,0,5.33,1.95,6.088,6.088,0,0,0,3.575-.909,2.692,2.692,0,0,0,1.278-2.252,1.68,1.68,0,0,0-.216-.824,2.423,2.423,0,0,0-.738-.759,10.4,10.4,0,0,0-.954-.605,10.852,10.852,0,0,0-1.364-.585q-.932-.347-1.408-.5t-1.6-.5q-6.284-1.818-6.284-5.849A5.92,5.92,0,0,1,56.1,8.267,8.641,8.641,0,0,1,61.99,6.4q5.284,0,7.885,3.293a7.077,7.077,0,0,1,1.431,3.3H67.624a4.448,4.448,0,0,0-1.042-1.648,6.379,6.379,0,0,0-4.722-1.69,5.34,5.34,0,0,0-3.25.846,2.4,2.4,0,0,0-1.127,1.928,1.836,1.836,0,0,0,.477,1.214,4.33,4.33,0,0,0,1.516,1.039,17.56,17.56,0,0,0,1.906.759q.868.281,2.385.715a14.27,14.27,0,0,1,4.528,2.275,4.4,4.4,0,0,1,1.712,3.619,6.217,6.217,0,0,1-2.318,4.9,9.356,9.356,0,0,1-6.307,1.992q-5.5,0-8.363-3.553a7.825,7.825,0,0,1-1.516-3.6" transform="translate(21.686 2.696)" fill="#fff"/>
        <path id="Path_5" data-name="Path 5" d="M67.115,30.944,70.928,9.278h3.466L70.581,30.944ZM71.188,3.21a2.492,2.492,0,0,1,.78-1.819,2.446,2.446,0,0,1,1.776-.78,2.2,2.2,0,0,1,1.624.627A2.1,2.1,0,0,1,76,2.777a2.5,2.5,0,0,1-.78,1.82,2.446,2.446,0,0,1-1.776.779,2.193,2.193,0,0,1-1.626-.627,2.093,2.093,0,0,1-.628-1.539" transform="translate(28.26 0.257)" fill="#fff"/>
        <path id="Path_6" data-name="Path 6" d="M84.706,28.936a10.338,10.338,0,0,1-7.583-2.861,9.671,9.671,0,0,1-2.9-7.192A12.087,12.087,0,0,1,77.8,9.978,11.727,11.727,0,0,1,86.4,6.4a10.343,10.343,0,0,1,7.583,2.859,9.677,9.677,0,0,1,2.9,7.195,12.086,12.086,0,0,1-3.574,8.9,11.727,11.727,0,0,1-8.6,3.574M93.458,16.63a6.671,6.671,0,0,0-2.015-5.048,7.357,7.357,0,0,0-5.308-1.928,8.094,8.094,0,0,0-5.98,2.557,8.889,8.889,0,0,0-2.514,6.5,6.672,6.672,0,0,0,2.015,5.049,7.361,7.361,0,0,0,5.308,1.927,8.092,8.092,0,0,0,5.98-2.556,8.885,8.885,0,0,0,2.514-6.5" transform="translate(31.252 2.696)" fill="#fff"/>
        <path id="Path_7" data-name="Path 7" d="M95.932,6.838H99.4l-.475,2.815a7.835,7.835,0,0,1,1.647-1.6A9.093,9.093,0,0,1,105.941,6.4a8.3,8.3,0,0,1,5.33,1.626,7.088,7.088,0,0,1,2.557,4.4,10.785,10.785,0,0,1,.131,1.688,15.551,15.551,0,0,1-.217,2.342L111.618,28.5h-3.466l2.123-12.045a11.109,11.109,0,0,0,.131-1.6,5.561,5.561,0,0,0-.954-3.294,5.252,5.252,0,0,0-4.55-1.907,6.683,6.683,0,0,0-4.66,1.756,8.334,8.334,0,0,0-2.491,4.83L95.585,28.5H92.118Z" transform="translate(38.788 2.696)" fill="#fff"/>
        <path id="Path_8" data-name="Path 8" d="M146.015,20.5h4.074a20.646,20.646,0,0,1-3.6,5.808,15.851,15.851,0,0,1-12.349,5.762,14.451,14.451,0,0,1-10.659-4.051,14.062,14.062,0,0,1-4.076-10.422,17.074,17.074,0,0,1,5.049-12.5A16.5,16.5,0,0,1,136.613,0a16.994,16.994,0,0,1,5.957.976,11.463,11.463,0,0,1,4.246,2.62,14.228,14.228,0,0,1,2.579,3.51,15.593,15.593,0,0,1,1.386,3.943h-3.9l-.173-.563a9.6,9.6,0,0,0-.584-1.366,11.02,11.02,0,0,0-1.214-1.755A9.788,9.788,0,0,0,143,5.569a10.282,10.282,0,0,0-2.838-1.323,12.907,12.907,0,0,0-3.9-.563,12.26,12.26,0,0,0-9.187,3.922,13.767,13.767,0,0,0-3.77,9.945,10.493,10.493,0,0,0,3.055,7.822,11.008,11.008,0,0,0,8.08,3.011,11.772,11.772,0,0,0,8.929-3.943,14.1,14.1,0,0,0,2.642-3.943" transform="translate(50.279 -0.001)" fill="#fff"/>
        <path id="Path_9" data-name="Path 9" d="M142.889,30.944,146.7,9.278h3.466l-3.813,21.666ZM146.962,3.21a2.492,2.492,0,0,1,.78-1.819,2.446,2.446,0,0,1,1.776-.78,2.2,2.2,0,0,1,1.624.627,2.1,2.1,0,0,1,.63,1.539,2.5,2.5,0,0,1-.78,1.82,2.447,2.447,0,0,1-1.776.779,2.193,2.193,0,0,1-1.626-.627,2.092,2.092,0,0,1-.628-1.539" transform="translate(60.166 0.257)" fill="#fff"/>
        <path id="Path_10" data-name="Path 10" d="M150.639,11.37l.563-3.249h2.818l.867-4.768h3.466l-.867,4.768h6.933l-.563,3.249h-6.933l-2.687,15.167h7.149l-.563,3.25H150.206l3.25-18.417Z" transform="translate(63.247 1.412)" fill="#fff"/>
        <path id="Path_11" data-name="Path 11" d="M160.727,30.944,164.54,9.278h3.466l-3.813,21.666ZM164.8,3.21a2.492,2.492,0,0,1,.78-1.819,2.446,2.446,0,0,1,1.776-.78,2.2,2.2,0,0,1,1.624.627,2.1,2.1,0,0,1,.63,1.539,2.5,2.5,0,0,1-.78,1.82,2.446,2.446,0,0,1-1.776.779,2.193,2.193,0,0,1-1.626-.627A2.092,2.092,0,0,1,164.8,3.21" transform="translate(67.677 0.257)" fill="#fff"/>
        <path id="Path_12" data-name="Path 12" d="M167.831,18.884a11.906,11.906,0,0,1,3.661-8.948A11.743,11.743,0,0,1,179.877,6.4a9.968,9.968,0,0,1,7.365,2.861A9.649,9.649,0,0,1,190.1,16.37c0,.377-.03.881-.087,1.516l-.087.867H171.253a6.635,6.635,0,0,0,2,5.028,7.089,7.089,0,0,0,5.112,1.906,8.682,8.682,0,0,0,5.677-1.95,6.556,6.556,0,0,0,1.734-1.95h3.6a12.869,12.869,0,0,1-2.6,3.6,12.171,12.171,0,0,1-8.666,3.553A10.066,10.066,0,0,1,170.69,26.1a9.737,9.737,0,0,1-2.859-7.215m3.857-3.163h14.906a6.579,6.579,0,0,0-2.166-4.442,7.19,7.19,0,0,0-4.9-1.626,7.7,7.7,0,0,0-4.9,1.714,8.471,8.471,0,0,0-2.946,4.354" transform="translate(70.668 2.696)" fill="#fff"/>
        <path id="Path_13" data-name="Path 13" d="M185.211,21.787h3.683a5.029,5.029,0,0,0,1.17,1.95,7.2,7.2,0,0,0,5.33,1.95,6.088,6.088,0,0,0,3.575-.909,2.692,2.692,0,0,0,1.278-2.252,1.68,1.68,0,0,0-.216-.824,2.423,2.423,0,0,0-.738-.759,10.4,10.4,0,0,0-.954-.605,10.854,10.854,0,0,0-1.364-.585q-.932-.347-1.408-.5t-1.6-.5q-6.284-1.818-6.284-5.849A5.92,5.92,0,0,1,189.8,8.267,8.641,8.641,0,0,1,195.7,6.4q5.284,0,7.886,3.293a7.077,7.077,0,0,1,1.431,3.3h-3.683a4.448,4.448,0,0,0-1.042-1.648,6.38,6.38,0,0,0-4.722-1.69,5.34,5.34,0,0,0-3.25.846,2.4,2.4,0,0,0-1.127,1.928,1.836,1.836,0,0,0,.477,1.214,4.329,4.329,0,0,0,1.516,1.039,17.56,17.56,0,0,0,1.906.759q.868.281,2.385.715A14.269,14.269,0,0,1,202,18.429a4.4,4.4,0,0,1,1.712,3.619,6.217,6.217,0,0,1-2.318,4.9,9.356,9.356,0,0,1-6.307,1.992q-5.5,0-8.363-3.553a7.826,7.826,0,0,1-1.516-3.6" transform="translate(77.986 2.696)" fill="#fff"/>
        <path id="Path_14" data-name="Path 14" d="M46.715,30.981,42.035,57.63H57.85L57.2,61.314H37.483l5.332-30.333Z" transform="translate(15.783 13.045)" fill="#05c779"/>
        <path id="Path_15" data-name="Path 15" d="M73.582,58.874H70.115l.519-2.861-.432.52a9.109,9.109,0,0,1-2.707,1.907,9.367,9.367,0,0,1-4.182.865,9.174,9.174,0,0,1-6.847-2.794,9.832,9.832,0,0,1-2.728-7.171,12.288,12.288,0,0,1,3.553-8.929,10.99,10.99,0,0,1,8.06-3.639,8.487,8.487,0,0,1,6.281,2.34,6.918,6.918,0,0,1,1.562,2.34l.78-4.246H77.44Zm-8.191-18.85a7.391,7.391,0,0,0-5.829,2.753A9.35,9.35,0,0,0,57.2,49.038a7.011,7.011,0,0,0,1.884,5.049,6.391,6.391,0,0,0,4.83,1.97,7.7,7.7,0,0,0,5.72-2.576,9.045,9.045,0,0,0,2.471-6.523A6.836,6.836,0,0,0,70.2,41.974a6.453,6.453,0,0,0-4.81-1.95" transform="translate(22.627 15.484)" fill="#05c779"/>
        <path id="Path_16" data-name="Path 16" d="M73.075,41.741l.563-3.249h2.818l.868-4.768h3.465l-.867,4.768h6.933l-.563,3.249H79.359L76.671,56.908h7.149l-.563,3.25H72.641l3.25-18.417Z" transform="translate(30.587 14.2)" fill="#05c779"/>
        <path id="Path_17" data-name="Path 17" d="M105.183,37.08,95.305,58.745H86.421L84.167,37.08h3.556L89.455,55.5h3.682l8.232-18.416Z" transform="translate(35.44 15.612)" fill="#05c779"/>
        <path id="Path_18" data-name="Path 18" d="M99.171,61.314l3.813-21.666h3.465l-3.811,21.666Zm4.071-27.734a2.5,2.5,0,0,1,.78-1.819,2.45,2.45,0,0,1,1.776-.78,2.2,2.2,0,0,1,1.626.627,2.1,2.1,0,0,1,.628,1.539,2.5,2.5,0,0,1-.78,1.82,2.444,2.444,0,0,1-1.776.779,2.188,2.188,0,0,1-1.624-.627,2.094,2.094,0,0,1-.63-1.539" transform="translate(41.758 13.045)" fill="#05c779"/>
        <path id="Path_19" data-name="Path 19" d="M126.123,58.874h-3.469l.519-2.861-.432.52a9.1,9.1,0,0,1-2.709,1.907,9.373,9.373,0,0,1-4.184.865,9.165,9.165,0,0,1-6.844-2.794,9.834,9.834,0,0,1-2.731-7.171,12.3,12.3,0,0,1,3.553-8.929,11,11,0,0,1,8.06-3.639,8.492,8.492,0,0,1,6.284,2.34,6.91,6.91,0,0,1,1.559,2.34l.78-4.246h3.467Zm-8.191-18.85a7.388,7.388,0,0,0-5.831,2.753,9.352,9.352,0,0,0-2.36,6.261,7.005,7.005,0,0,0,1.884,5.049,6.392,6.392,0,0,0,4.832,1.97,7.7,7.7,0,0,0,5.72-2.576,9.056,9.056,0,0,0,2.471-6.523,6.83,6.83,0,0,0-1.907-4.984,6.452,6.452,0,0,0-4.809-1.95" transform="translate(44.749 15.484)" fill="#05c779"/>
        <path id="Path_20" data-name="Path 20" d="M33.081,46.164A11.56,11.56,0,0,1,21.535,34.618h2.842a8.715,8.715,0,0,0,8.7,8.7Z" transform="translate(9.068 14.576)" fill="#05c779"/>
        <path id="Path_21" data-name="Path 21" d="M24.377,52.282H21.535A11.56,11.56,0,0,1,33.081,40.736v2.842a8.715,8.715,0,0,0-8.7,8.7" transform="translate(9.068 17.152)" fill="#05c779"/>
        <rect id="Rectangle_1" data-name="Rectangle 1" width="42.159" height="2.842" transform="translate(0 57.88)" fill="#05c779"/>
      </g>
    </g>
  </g>
</svg>
